<svg width="180" height="240" viewBox="0 0 180 240" fill="none" xmlns="http://www.w3.org/2000/svg">
  <defs>
    <linearGradient id="gc1" x1="90" y1="0" x2="90" y2="240" gradientUnits="userSpaceOnUse">
      <stop offset="0.4" stop-color="#3a9fd5"/>
      <stop offset="1" stop-color="#3a9fd5" stop-opacity="0"/>
    </linearGradient>
    <linearGradient id="gc2" x1="90" y1="0" x2="90" y2="240" gradientUnits="userSpaceOnUse">
      <stop offset="0.3" stop-color="#ffe066"/>
      <stop offset="1" stop-color="#ffe066" stop-opacity="0"/>
    </linearGradient>
  </defs>
  <!-- 머리 -->
  <circle cx="90" cy="58" r="42" stroke="url(#gc1)" stroke-width="8" stroke-linecap="round"/>
  <!-- 왼쪽 눈 (아치형) -->
  <path d="M68 52 Q72 44 76 52" stroke="url(#gc2)" stroke-width="6" stroke-linecap="round" fill="none"/>
  <!-- 오른쪽 눈 -->
  <path d="M104 52 Q108 44 112 52" stroke="url(#gc2)" stroke-width="6" stroke-linecap="round" fill="none"/>
  <!-- 입 (웃음) -->
  <path d="M73 70 Q90 84 107 70" stroke="url(#gc2)" stroke-width="5" stroke-linecap="round" fill="none"/>
  <!-- 머리 장식 -->
  <path d="M58 28 Q75 14 90 20 Q105 14 122 28" stroke="url(#gc1)" stroke-width="6" stroke-linecap="round" fill="none"/>
  <!-- 몸통 -->
  <path d="M42 118 Q90 104 138 118 L142 186 L38 186 Z" stroke="url(#gc1)" stroke-width="8" stroke-linecap="round" stroke-linejoin="round" fill="rgba(58,159,213,0.12)"/>
  <!-- 왼팔 -->
  <path d="M45 124 Q22 110 10 92" stroke="url(#gc1)" stroke-width="8" stroke-linecap="round"/>
  <!-- 오른팔 -->
  <path d="M135 124 Q158 110 170 92" stroke="url(#gc1)" stroke-width="8" stroke-linecap="round"/>
  <!-- 왼손 -->
  <circle cx="9" cy="89" r="7" stroke="url(#gc1)" stroke-width="6"/>
  <!-- 오른손 -->
  <circle cx="171" cy="89" r="7" stroke="url(#gc1)" stroke-width="6"/>
  <!-- 왼발 -->
  <path d="M62 186 Q56 210 52 232" stroke="url(#gc1)" stroke-width="8" stroke-linecap="round"/>
  <!-- 오른발 -->
  <path d="M118 186 Q124 210 128 232" stroke="url(#gc1)" stroke-width="8" stroke-linecap="round"/>
  <!-- 가슴 코드 심볼 < -->
  <path d="M72 144 L60 155 L72 166" stroke="url(#gc2)" stroke-width="5" stroke-linecap="round" stroke-linejoin="round" fill="none"/>
  <!-- 가슴 코드 심볼 > -->
  <path d="M108 144 L120 155 L108 166" stroke="url(#gc2)" stroke-width="5" stroke-linecap="round" stroke-linejoin="round" fill="none"/>
  <!-- 가슴 코드 심볼 / -->
  <path d="M86 140 L94 172" stroke="url(#gc2)" stroke-width="5" stroke-linecap="round"/>
</svg>
